<svg width="911" height="230" viewBox="0 0 911 230" fill="none" xmlns="http://www.w3.org/2000/svg">
<rect width="230" height="230" fill="#070b24"/>
<rect width="230" height="230" fill="#070b24"/>
<path fill-rule="evenodd" clip-rule="evenodd" d="M155 185H185V155H171V171H155V185ZM155 59H171V75H185V45H155V59ZM75 45V59H59V75H45V45H75ZM75 171V185H45V155H59V171H75ZM31 108H71V122H31V108ZM199 122H159V108H199V122ZM118 80H123C131.836 80 139 87.1635 139 96V134C139 142.837 131.836 150 123 150H90V108H104V136H119C122.313 136 125 133.314 125 130V100C125 96.6863 122.313 94 119 94H118V80ZM104 80V94H90V80H104Z" fill="#FFF"/>
<path d="M330.523 185C315.819 185 305.389 181.125 299.233 173.375C293.078 165.513 290 154.226 290 139.513V90.6558C290 75.6057 293.021 64.2619 299.062 56.6245C305.218 48.8748 315.705 45 330.523 45C344.658 45 354.632 48.4256 360.446 55.2768C366.373 62.0156 369.337 71.7308 369.337 84.4224V95.8785H341.979V83.2431C341.979 79.1998 341.751 75.9426 341.295 73.4717C340.954 71.0008 339.928 68.9791 338.218 67.4067C336.622 65.722 334.114 64.8797 330.694 64.8797C325.565 64.8797 322.259 66.5082 320.777 69.7653C319.295 73.0225 318.554 77.7958 318.554 84.0854V146.083C318.554 152.485 319.409 157.258 321.119 160.403C322.829 163.548 326.021 165.12 330.694 165.12C335.482 165.12 338.56 163.548 339.928 160.403C341.295 157.146 341.979 152.373 341.979 146.083V132.774H369.337V144.061C369.337 157.09 366.43 167.198 360.617 174.386C354.803 181.462 344.772 185 330.523 185Z" fill="#070b24"/>
<path d="M435.634 185C420.929 185 410.442 181.237 404.173 173.712C397.903 166.075 394.768 154.9 394.768 140.187V89.3081C394.768 74.5949 397.903 63.5319 404.173 56.1191C410.442 48.7064 420.929 45 435.634 45C450.224 45 460.655 48.7625 466.924 56.2876C473.307 63.7004 476.499 74.7072 476.499 89.3081V140.355C476.499 154.956 473.307 166.075 466.924 173.712C460.655 181.237 450.224 185 435.634 185ZM435.634 165.12C440.421 165.12 443.613 163.548 445.209 160.403C446.919 157.146 447.774 152.71 447.774 147.094V82.5692C447.774 76.9535 446.919 72.6294 445.209 69.5969C443.613 66.4521 440.421 64.8797 435.634 64.8797C430.846 64.8797 427.597 66.4521 425.888 69.5969C424.292 72.6294 423.494 76.9535 423.494 82.5692V147.094C423.494 152.822 424.292 157.258 425.888 160.403C427.483 163.548 430.732 165.12 435.634 165.12Z" fill="#070b24"/>
<path d="M497.926 46.6847H522.377L538.791 141.029L554.18 46.6847H579.657L553.325 183.147H524.257L497.926 46.6847Z" fill="#070b24"/>
<path d="M604.361 46.6847H632.403V183.147H604.361V46.6847Z" fill="#070b24"/>
<path d="M663.704 46.6847H697.559C709.186 46.6847 718.248 48.201 724.745 51.2335C731.357 54.1536 736.03 58.7024 738.766 64.8797C741.616 71.057 743.041 79.2559 743.041 89.4765V139.176C743.041 149.621 741.673 158.045 738.937 164.446C736.201 170.736 731.585 175.453 725.087 178.598C718.59 181.631 709.642 183.147 698.243 183.147H663.704V46.6847ZM697.901 163.773C702.802 163.773 706.393 163.043 708.673 161.582C711.066 160.01 712.548 157.764 713.118 154.844C713.802 151.923 714.144 147.712 714.144 142.208V85.7702C714.144 80.6037 713.745 76.7288 712.947 74.1456C712.263 71.4501 710.782 69.4846 708.502 68.2491C706.222 66.9013 702.631 66.2274 697.73 66.2274H691.745V163.773H697.901Z" fill="#070b24"/>
<path d="M772.32 46.6847H800.362V183.147H772.32V46.6847Z" fill="#070b24"/>
<path d="M831.663 46.6847H865.518C877.145 46.6847 886.207 48.201 892.705 51.2335C899.316 54.1536 903.99 58.7024 906.725 64.8797C909.575 71.057 911 79.2559 911 89.4765V139.176C911 149.621 909.632 158.045 906.896 164.446C904.161 170.736 899.544 175.453 893.047 178.598C886.549 181.631 877.601 183.147 866.202 183.147H831.663V46.6847ZM865.86 163.773C870.762 163.773 874.352 163.043 876.632 161.582C879.026 160.01 880.508 157.764 881.078 154.844C881.762 151.923 882.104 147.712 882.104 142.208V85.7702C882.104 80.6037 881.705 76.7288 880.907 74.1456C880.223 71.4501 878.741 69.4846 876.461 68.2491C874.181 66.9013 870.591 66.2274 865.689 66.2274H859.705V163.773H865.86Z" fill="#070b24"/>
</svg>
